<svg xmlns="http://www.w3.org/2000/svg" width="16" height="16" viewBox="0 0 16 16"><path d="M15.7018 5.42303L8.50182 11.823C8.35583 11.9513 8.16815 12.022 7.97382 12.022C7.7795 12.022 7.59181 11.9513 7.44582 11.823L0.245822 5.42303C0.0971563 5.28024 0.0093474 5.08557 0.000704197 4.87962C-0.007939 4.67366 0.0632507 4.47232 0.19943 4.31757C0.335609 4.16282 0.526266 4.06661 0.731648 4.049C0.93703 4.03139 1.14128 4.09373 1.30182 4.22304L7.97382 10.151L14.6458 4.22304C14.7237 4.14823 14.8159 4.08996 14.9169 4.05175C15.0179 4.01354 15.1256 3.99618 15.2335 4.0007C15.3414 4.00523 15.4473 4.03156 15.5448 4.0781C15.6422 4.12464 15.7292 4.19043 15.8006 4.2715C15.8719 4.35257 15.9261 4.44725 15.9599 4.54982C15.9936 4.6524 16.0063 4.76075 15.9971 4.86835C15.9878 4.97595 15.9569 5.08057 15.9062 5.17589C15.8554 5.27122 15.7859 5.35529 15.7018 5.42303Z" fill="#D2D2D2"/></svg>