<svg xmlns="http://www.w3.org/2000/svg" width="16" height="16" viewBox="0 0 16 16">
    <path d="M8.125 0C4.74766 0 2 2.74766 2 6.125C2 7.20606 2.28562 8.26891 2.82597 9.19859C2.95194 9.41534 3.09275 9.62656 3.24456 9.82641L7.85887 16H8.39109L13.0054 9.82644C13.1572 9.62656 13.298 9.41537 13.424 9.19862C13.9644 8.26891 14.25 7.20606 14.25 6.125C14.25 2.74766 11.5023 0 8.125 0ZM8.125 8.15625C7.00497 8.15625 6.09375 7.24503 6.09375 6.125C6.09375 5.00497 7.00497 4.09375 8.125 4.09375C9.24503 4.09375 10.1562 5.00497 10.1562 6.125C10.1562 7.24503 9.24503 8.15625 8.125 8.15625Z" fill="#5F4BDB"/>
</svg>