<svg width="22" height="22" viewBox="0 0 22 22" fill="none" xmlns="http://www.w3.org/2000/svg">
<path d="M20.7096 19.2901L17.8796 16.4701C19.4138 14.5748 20.1622 12.163 19.9705 9.73209C19.7788 7.30119 18.6617 5.03653 16.8494 3.40507C15.0371 1.77362 12.6679 0.899774 10.2303 0.963727C7.79268 1.02768 5.47255 2.02456 3.74831 3.7488C2.02407 5.47304 1.02719 7.79317 0.963239 10.2308C0.899285 12.6684 1.77313 15.0376 3.40458 16.8499C5.03604 18.6621 7.3007 19.7793 9.7316 19.971C12.1625 20.1627 14.5743 19.4143 16.4696 17.8801L19.2896 20.7101C19.3826 20.8038 19.4932 20.8782 19.615 20.929C19.7369 20.9798 19.8676 21.0059 19.9996 21.0059C20.1316 21.0059 20.2623 20.9798 20.3842 20.929C20.506 20.8782 20.6166 20.8038 20.7096 20.7101C20.8033 20.6171 20.8777 20.5065 20.9285 20.3847C20.9793 20.2628 21.0054 20.1321 21.0054 20.0001C21.0054 19.8681 20.9793 19.7374 20.9285 19.6155C20.8777 19.4937 20.8033 19.3831 20.7096 19.2901ZM2.9996 10.5001C2.9996 9.01673 3.43947 7.56668 4.26358 6.33331C5.08769 5.09995 6.25903 4.13865 7.62948 3.57099C8.99992 3.00334 10.5079 2.85481 11.9628 3.1442C13.4176 3.43359 14.754 4.1479 15.8029 5.19679C16.8518 6.24568 17.5661 7.58206 17.8555 9.03691C18.1449 10.4918 17.9964 11.9998 17.4287 13.3702C16.861 14.7407 15.8997 15.912 14.6664 16.7361C13.433 17.5602 11.983 18.0001 10.4996 18.0001C8.51048 18.0001 6.60282 17.2099 5.1963 15.8034C3.78978 14.3969 2.9996 12.4892 2.9996 10.5001Z" fill="white"/>
</svg>
