<?xml version="1.0" standalone="no"?>
<!DOCTYPE svg PUBLIC "-//W3C//DTD SVG 1.1//EN" "http://www.w3.org/Graphics/SVG/1.1/DTD/svg11.dtd" >
<svg xmlns="http://www.w3.org/2000/svg">
<metadata>Generated by IcoMoon</metadata>
<defs>
<font id="icomoon" horiz-adv-x="1024">
<font-face units-per-em="1024" ascent="960" descent="-64" />
<missing-glyph horiz-adv-x="1024" />
<glyph unicode="&#x20;" horiz-adv-x="512" d="" />
<glyph unicode="&#xe900;" glyph-name="brand_logo_1" horiz-adv-x="5067" d="M1972.319 157.743h-136.833v279.418h-256.391v-279.418h-137.274v647.401h137.274v-253.736h256.391v253.736h136.833v-647.401zM2119.777 780.789c0 43.987 24.502 65.98 73.507 65.98s73.507-21.993 73.507-65.98c0-20.96-6.199-37.344-18.597-49.153-12.104-11.513-30.408-17.27-54.91-17.27-49.005 0-73.507 22.141-73.507 66.423zM2260.593 157.743h-135.060v495.070h135.060v-495.070zM2833.592 652.813v-68.637l-77.483-19.926c14.178-22.142 21.268-46.939 21.268-74.392 0-53.14-18.616-94.618-55.795-124.434-36.917-29.52-88.274-44.281-154.115-44.281l-24.355 1.329-19.926 2.213c-13.874-10.626-20.813-22.436-20.813-35.425 0-19.485 24.799-29.226 74.395-29.226h84.136c54.325 0 95.652-11.66 123.983-34.981 28.646-23.324 42.955-57.567 42.955-102.736 0-57.861-24.208-102.733-72.625-134.617-48.102-31.883-117.34-47.823-207.675-47.823-69.081 0-121.924 12.104-158.531 36.31-36.31 23.912-54.466 57.567-54.466 100.964 0 29.817 9.3 54.763 27.897 74.836 18.6 20.076 45.907 34.393 81.923 42.953-13.877 5.905-25.978 15.499-36.313 28.785-10.332 13.58-15.497 27.897-15.497 42.953 0 18.894 5.461 34.54 16.384 46.939 10.923 12.695 26.716 25.093 47.382 37.197-25.981 11.217-46.645 29.226-61.997 54.023-15.055 24.799-22.583 54.025-22.583 87.678 0 54.025 17.566 95.797 52.697 125.319 35.128 29.52 85.315 44.281 150.557 44.281 13.877 0 30.261-1.329 49.155-3.986 19.188-2.36 31.45-4.133 36.754-5.314h172.688zM2451.448 87.778c0-18.6 8.856-33.212 26.569-43.84 18.009-10.629 43.103-15.94 75.28-15.94 48.417 0 86.339 6.64 113.803 19.926 27.464 13.283 41.196 31.439 41.196 54.466 0 18.597-8.139 31.439-24.366 38.526-16.226 7.084-41.328 10.626-75.28 10.626h-69.965c-24.799 0-45.61-5.755-62.438-17.269-16.534-11.808-24.799-27.307-24.799-46.495zM2500.603 490.743c0-26.866 6.052-48.12 18.154-63.766 12.401-15.646 31.145-23.471 56.239-23.471 25.39 0 43.987 7.824 55.792 23.471 11.815 15.646 17.723 36.901 17.723 63.766 0 59.634-24.51 89.45-73.515 89.45-49.596 0-74.392-29.817-74.392-89.45zM3372.505 157.743h-135.063v289.159c0 71.441-26.545 107.163-79.688 107.163-37.783 0-65.090-12.842-81.92-38.526-16.83-25.681-25.259-67.308-25.259-124.875v-232.921h-135.063v689.026h135.063v-140.374c0-10.923-1.024-36.607-3.098-77.050l-3.098-39.855h7.089c30.116 48.414 77.929 72.623 143.465 72.623 58.158 0 102.295-15.646 132.411-46.939s45.161-76.165 45.161-134.617v-322.815zM3646.622 157.743h-135.063v689.026h135.063v-689.026zM3896.373 406.163c0-49.005 7.956-86.053 23.92-111.146 16.226-25.093 42.509-37.641 78.822-37.641 35.998 0 61.834 12.398 77.483 37.197 15.938 25.093 23.92 62.291 23.92 111.59 0 49.005-7.982 85.761-23.92 110.264s-42.063 36.754-78.375 36.754c-36.024 0-61.991-12.251-77.929-36.754-15.964-24.208-23.92-60.962-23.92-110.264zM4238.677 406.163c0-80.591-21.268-143.62-63.777-189.083s-101.691-68.193-177.572-68.193c-47.524 0-89.456 10.332-125.768 30.996-36.313 20.96-64.197 50.924-83.679 89.891-19.482 38.97-29.223 84.433-29.223 136.389 0 80.888 21.11 143.77 63.33 188.642 42.194 44.872 101.534 67.308 177.992 67.308 47.55 0 89.456-10.332 125.768-30.998 36.313-20.664 64.197-50.334 83.705-89.007 19.482-38.67 29.223-83.986 29.223-135.945zM4757.215 157.743l-38.098 173.14-51.358 218.755h-3.098l-90.348-391.895h-145.224l-140.813 495.070h134.617l57.108-219.194c9.163-39.264 18.458-93.436 27.911-162.517h2.652c1.182 22.436 6.354 58.011 15.491 106.722l7.089 37.639 61.099 237.35h148.795l58-237.35c1.182-6.496 2.967-16.090 5.33-28.782 2.652-12.695 5.173-26.275 7.536-40.739 2.363-14.171 4.411-28.194 6.197-42.068 2.048-13.58 3.23-24.502 3.545-32.771h2.652c2.652 21.257 7.378 50.336 14.152 87.237 6.8 37.197 11.684 62.291 14.625 75.28l59.339 219.194h132.411l-142.599-495.070h-147.010zM470.888 53.104c260.062 0 470.888 203.015 470.888 453.446 0 250.433-210.826 453.448-470.888 453.448-260.063 0-470.888-203.016-470.888-453.448s210.823-453.446 470.888-453.446zM820.256 506.549h-698.736c0 185.958 156.287 336.429 349.368 336.429 193.111 0 349.368-150.5 349.368-336.429z" />
<glyph unicode="&#xe901;" glyph-name="brand_logo_2" horiz-adv-x="4561" d="M608.675 48.435c-35.263-28.017-81.157-49.757-137.675-65.213-56.522-15.459-126.082-23.189-208.689-23.189-82.123 0-169.56 7.488-262.31 22.463v955.041c93.717 14.975 174.873 22.463 243.47 22.463 69.079 0 125.601-6.522 169.559-19.565 44.445-13.043 80.676-30.675 108.693-52.897 55.069-42.994 82.606-98.789 82.606-167.386 0-68.114-24.877-124.635-74.634-169.56 58.936-18.358 104.585-53.136 136.952-104.342 29.466-45.894 44.2-96.858 44.2-152.896 0-55.554-8.211-103.135-24.635-142.749-15.943-39.61-41.789-73.669-77.535-102.17zM192.023 577.403c20.289-3.379 45.651-5.070 76.084-5.070s55.312 3.863 74.635 11.593c19.807 8.214 35.024 18.358 45.652 30.435 17.389 19.807 26.084 47.341 26.084 82.605 0 73.911-43.477 110.866-130.429 110.866-36.714 0-67.389-1.449-92.026-4.348v-226.081zM299.266 422.338c-40.578 0-76.326-2.659-107.243-7.972v-284.774c33.815-8.695 69.321-13.042 106.518-13.042s69.804 4.347 97.821 13.042c28.501 9.179 52.416 21.498 71.739 36.957 39.129 31.881 58.694 72.459 58.694 121.735 0 89.367-75.844 134.054-227.53 134.054zM794.9 352.774c0 53.136 8.937 103.862 26.813 152.17 18.354 48.789 44.442 91.3 78.255 127.531 73.911 78.258 169.804 117.387 287.673 117.387 117.388 0 210.621-36.955 279.701-110.867 66.181-70.529 99.272-162.071 99.272-274.627s-34.056-205.79-102.17-279.701c-71.978-78.258-167.387-117.388-286.224-117.388-122.7 0-218.832 38.406-288.396 115.216-63.283 70.045-94.925 160.138-94.925 270.28zM970.982 357.122c0-30.435 5.073-59.901 15.217-88.402s24.638-52.897 43.477-73.188c40.097-43.958 92.753-65.939 157.966-65.939 60.385 0 107.967 21.498 142.749 64.49 33.817 41.546 50.722 95.651 50.722 162.313 0 67.631-17.389 122.219-52.171 163.766-37.196 44.442-88.16 66.662-152.893 66.662-65.697 0-117.146-23.67-154.342-71.013-33.817-43.477-50.725-96.374-50.725-158.689zM1662.988 352.774c0 53.136 8.937 103.862 26.81 152.17 18.358 48.789 44.445 91.3 78.258 127.531 73.911 78.258 169.801 117.387 287.673 117.387 117.388 0 210.621-36.955 279.701-110.867 66.181-70.529 99.272-162.071 99.272-274.627s-34.059-205.79-102.17-279.701c-71.978-78.258-167.387-117.388-286.224-117.388-122.7 0-218.832 38.406-288.396 115.216-63.283 70.045-94.925 160.138-94.925 270.28zM1839.070 357.122c0-30.435 5.073-59.901 15.217-88.402s24.635-52.897 43.477-73.188c40.094-43.958 92.75-65.939 157.966-65.939 60.385 0 107.967 21.498 142.749 64.49 33.814 41.546 50.722 95.651 50.722 162.313 0 67.631-17.389 122.219-52.171 163.766-37.196 44.442-88.16 66.662-152.893 66.662-65.7 0-117.149-23.67-154.345-71.013-33.814-43.477-50.722-96.374-50.722-158.689zM2841.209-32.721c-136.226 0-238.881 24.88-307.96 74.637 0.968 14.491 2.417 30.915 4.347 49.273l6.523 52.171c3.863 34.298 6.281 55.554 7.246 63.767 0.968 8.695 1.691 13.284 2.175 13.768 0.484 0.965 4.347-2.901 11.593-11.596 7.246-8.211 21.014-18.358 41.304-30.435 20.288-12.074 43.719-22.702 70.287-31.881 57.487-19.807 117.388-29.712 179.703-29.712 83.574 0 125.359 27.778 125.359 83.332 0 17.873-7.972 31.158-23.912 39.855-28.501 14.491-70.529 25.361-126.082 32.607-55.073 7.73-100.24 18.838-135.503 33.333-35.266 14.491-64.009 31.881-86.23 52.171-41.059 38.164-61.592 88.16-61.592 149.994 0 75.36 28.985 134.538 86.953 177.531 57.487 42.511 136.952 63.766 238.4 63.766 100.479 0 186.225-28.501 257.232-85.504-3.382-12.56-7.013-24.637-10.861-36.23-11.109-31.884-19.326-54.831-24.641-68.841l-16.666-42.75c-0.965-3.866-1.688-5.796-2.172-5.796-0.965 0-4.831 5.070-11.593 15.217-30.435 35.263-77.777 58.452-142.026 69.561-19.807 3.866-40.094 5.8-60.866 5.8-87.921 0-131.882-26.571-131.882-79.708 0-18.358 9.179-32.368 27.536-42.031 34.298-18.354 81.157-31.881 140.573-40.578 59.904-8.695 105.311-20.53 136.229-35.505 30.915-14.491 55.796-32.126 74.646-52.897 34.785-37.68 52.162-87.676 52.162-149.994 0-68.115-27.307-123.426-81.883-165.938-57.003-44.926-136.468-67.389-238.4-67.389zM3584.652-32.721c-136.223 0-238.871 24.88-307.945 74.637 0.962 14.491 2.42 30.915 4.344 49.273l6.516 52.171c3.879 34.298 6.299 55.554 7.261 63.767 0.962 8.695 1.676 13.284 2.172 13.768 0.465 0.965 4.344-2.901 11.574-11.596 7.261-8.211 21.039-18.358 41.301-30.435 20.294-12.074 43.722-22.702 70.315-31.881 57.468-19.807 117.388-29.712 179.696-29.712 83.565 0 125.362 27.778 125.362 83.332 0 17.873-7.975 31.158-23.924 39.855-28.486 14.491-70.532 25.361-126.076 32.607-55.079 7.73-100.259 18.838-135.509 33.333-35.25 14.491-64.016 31.881-86.233 52.171-41.053 38.164-61.595 88.16-61.595 149.994 0 75.36 28.982 134.538 86.947 177.531 57.499 42.511 136.968 63.766 238.406 63.766 100.476 0 186.244-28.501 257.241-85.504-3.382-12.56-7.013-24.637-10.861-36.23-11.109-31.884-19.332-54.831-24.638-68.841l-16.663-42.75c-0.962-3.866-1.707-5.796-2.172-5.796-0.962 0-4.841 5.070-11.605 15.217-30.441 35.263-77.762 58.452-142.026 69.561-19.797 3.866-40.091 5.8-60.85 5.8-87.94 0-131.879-26.571-131.879-79.708 0-18.358 9.154-32.368 27.524-42.031 34.288-18.354 81.144-31.881 140.567-40.578 59.92-8.695 105.317-20.53 136.223-35.505 30.937-14.491 55.792-32.126 74.659-52.897 34.754-37.68 52.162-87.676 52.162-149.994 0-68.115-27.307-123.426-81.889-165.938-57.003-44.926-136.471-67.389-238.406-67.389zM4409.282 137.564c62.309 0 105.069 16.182 128.248 48.55h5.803l2.172-168.113c-23.676-23.67-67.646-39.368-131.879-47.098-17.408-2.417-39.129-3.624-65.226-3.624-25.6 0-53.62 4.831-84.061 14.494-29.944 9.66-55.544 25.361-76.8 47.098-43.97 44.926-65.939 115.216-65.939 210.863v328.974h-109.413c-0.496 14.010-0.714 28.259-0.714 42.754v111.59c0 8.212 0.217 12.318 0.714 12.318h109.413v206.515h177.524v-206.515h199.277v-166.662h-199.277v-295.641c0-75.844 21.008-119.079 63.054-129.707 13.529-3.863 29.231-5.796 47.104-5.796z" />
<glyph unicode="&#xe902;" glyph-name="brand_logo_3" horiz-adv-x="3281" d="M676.185 395.848c0-66.423 1.181-109.081 3.542-127.975h-115.575v462.747h112.033v-39.854c40.444 32.474 81.922 48.71 124.433 48.71 50.185 0 86.644-21.697 109.376-65.094 22.731 23.321 41.624 38.673 56.68 46.053 25.094 12.694 50.185 19.041 75.279 19.041 25.388 0 46.939-4.28 64.652-12.842 17.711-8.562 32.326-20.666 43.839-36.312 23.323-31.587 34.983-74.983 34.983-130.188v-176.242c0-49.892 0.738-79.855 2.215-89.892 1.475-10.037 3.394-16.532 5.755-19.484 2.657-2.953 4.872-5.609 6.643-7.97l-0.886-1.771c-23.616 2.065-41.034 3.099-52.252 3.099h-33.212c-10.923 0-24.356-0.442-40.296-1.327v239.565c0 69.080-10.629 110.114-31.882 123.104-7.086 4.132-15.5 6.199-25.242 6.199-9.447 0-17.861-1.179-25.242-3.542-7.378-2.067-14.317-5.609-20.812-10.627-10.923-7.972-23.321-23.618-37.196-46.939 0.294-2.363 0.442-4.724 0.442-7.086 0-2.361 0-41.33 0-116.903 0-75.575 1.771-136.389 5.313-182.443-25.092 0-46.495 0-64.209 0-17.417 0-34.097-0.442-50.038-1.327v240.007c0 48.12-2.953 79.413-8.858 93.878-5.609 14.467-11.66 23.912-18.155 28.34-6.495 4.43-14.465 6.643-23.912 6.643-38.969 0-71.441-18.745-97.42-56.238v-183.326zM1619.392 295.327c-41.921-22.731-79.855-34.097-113.804-34.097-33.951 0-63.029 3.1-87.237 9.299-24.206 6.495-44.724 15.942-61.552 28.34-34.243 25.094-51.367 61.406-51.367 108.935 0 42.511 20.962 77.936 62.881 106.276 45.462 30.703 107.162 46.053 185.097 46.053l17.713-0.442c3.542-0.296 7.528-0.592 11.956-0.886 4.428 0 8.414-0.296 11.956-0.886-2.361 47.233-22.731 74.835-61.108 82.806-12.696 2.659-26.275 3.986-40.74 3.986-14.171 0-28.192-1.327-42.067-3.986-13.579-2.361-26.865-5.607-39.854-9.741-28.636-9.152-49.152-19.632-61.552-31.441l-1.327 0.886-13.285 97.864c52.252 27.455 109.376 41.182 171.372 41.182 96.239 0 157.791-34.687 184.656-104.063 8.56-22.141 12.842-47.087 12.842-74.835v-160.302c0-34.245 12.102-57.566 36.31-69.966l-80.151-73.508c-16.826 8.858-30.407 21.699-40.738 38.525zM1595.479 478.212c-7.972 1.477-16.238 2.215-24.798 2.215h-17.713c-65.242 0-106.72-14.465-124.433-43.397-5.313-8.562-7.97-17.565-7.97-27.011 0-9.447 1.623-17.861 4.872-25.242 3.542-7.085 9.299-12.99 17.27-17.713 15.351-8.856 38.083-13.284 68.195-13.284 30.407 0 58.747 7.232 85.020 21.697-0.294 3.248-0.442 6.643-0.442 10.185v92.549zM1819.546 859.48c19.189 30.702 41.182 59.633 65.98 86.793l84.575-66.866c-14.753-18.894-24.804-31.883-30.113-38.968l-15.493-21.698c-5.025-6.79-10.335-14.465-15.948-23.027l-89.001 63.766zM1770.392 199.236c43.693 0 65.538 32.474 65.538 97.42v433.964h107.603v-402.081c0-123.989-35.271-197.349-105.832-220.080-23.027-7.38-49.152-11.071-78.38-11.071l-46.053 116.461 0.887 2.215c16.826-11.218 35.573-16.828 56.237-16.828zM2056.002 862.58c23.628 36.902 48.28 69.375 73.956 97.42l95.213-74.837c-12.705-15.646-24.5-30.997-35.423-46.053 0 0-11.378-16.089-34.095-48.267l-99.65 71.737zM2172.473 317.468c0-25.388 0.588-41.92 1.764-49.596h-112.469v462.747h110.706v-413.152zM2414.251 324.555c0-25.979 1.176-44.874 3.546-56.682h-111.142v462.747h107.596v-39.411c38.969 32.176 80.593 48.266 124.871 48.266 48.412 0 87.097-16.532 116.015-49.596 28.937-32.768 43.406-76.017 43.406-129.746v-176.242c0-49.892 0.74-79.855 2.219-89.892s3.394-16.532 5.746-19.484c2.655-2.953 4.873-5.609 6.656-7.97l-0.891-1.771c-23.912 2.065-41.339 3.099-52.262 3.099h-30.985c-9.444 0-22.149-0.442-38.097-1.327v241.336c0 86.498-26.264 129.746-78.81 129.746-38.969 0-71.585-20.074-97.868-60.224v-252.848zM2806.139 495.483c0 34.539 5.916 66.569 17.711 96.091 11.814 29.522 28.501 55.353 50.043 77.494 46.061 46.939 106.287 70.408 180.679 70.408 62.881 0 113.361-20.812 151.438-62.437 37.49-40.148 56.244-90.63 56.244-151.444 0-23.323-1.783-39.265-5.31-47.825-29.525-8.266-89.6-12.4-180.243-12.4h-155.857c7.661-31.587 25.524-56.238 53.57-73.95 28.046-17.417 64.512-26.127 109.378-26.127 46.933 0 87.23 8.414 120.889 25.242 8.856 4.428 15.493 8.56 19.93 12.398-0.588-12.398-1.327-25.092-2.219-38.081l-4.873-69.080c-22.433-15.351-58.747-25.979-108.923-31.882-14.772-1.773-28.937-2.659-42.515-2.659-74.98 0-136.988 21.847-185.989 65.538-49.304 43.986-73.956 100.225-73.956 168.715zM3144.457 551.278c-12.098 63.471-46.649 95.205-103.614 95.205-44.866 0-78.981-19.337-102.286-58.010-7.092-11.808-12.553-24.798-16.384-38.967 7.073-0.296 15.777-0.592 26.112-0.886h32.768c10.923-0.296 21.409-0.444 31.441-0.444h25.24c15.057 0 29.829 0.148 44.297 0.444l36.295 1.327c9.747 0.296 18.451 0.738 26.131 1.329zM120.89 719.055c41.92 22.733 79.856 34.097 113.805 34.097s63.027-3.099 87.235-9.299c24.206-6.495 44.724-15.94 61.552-28.34 34.243-25.094 51.367-61.404 51.367-108.933 0-42.511-20.96-77.936-62.881-106.278-45.462-30.701-107.162-46.052-185.098-46.052l-17.713 0.442c-3.543 0.296-7.528 0.59-11.956 0.886-4.428 0-8.414 0.296-11.956 0.886 2.362-47.233 22.731-74.835 61.108-82.807 12.696-2.657 26.275-3.984 40.74-3.984 14.171 0 28.192 1.327 42.067 3.984 13.579 2.363 26.865 5.609 39.854 9.743 28.636 9.152 49.152 19.63 61.552 31.439l1.327-0.886 13.285-97.862c-52.252-27.455-109.376-41.182-171.37-41.182-96.24 0-157.792 34.687-184.657 104.061-8.561 22.141-12.842 47.087-12.842 74.837v160.302c0 34.243-12.104 57.566-36.311 69.964l80.15 73.508c16.827-8.856 30.407-21.697 40.739-38.525zM144.802 536.17c7.971-1.475 16.237-2.213 24.798-2.213h17.713c65.242 0 106.72 14.465 124.433 43.397 5.313 8.56 7.97 17.563 7.97 27.011s-1.623 17.861-4.872 25.242c-3.542 7.085-9.299 12.99-17.27 17.711-15.351 8.858-38.081 13.285-68.195 13.285-30.407 0-58.747-7.232-85.021-21.697 0.295-3.248 0.443-6.643 0.443-10.185v-92.551zM135.789 19.012c-19.676 19.676-19.676 51.577 0 71.253l43.004 43.004c19.676 19.676 51.576 19.676 71.252 0l43.004-43.004c19.676-19.676 19.676-51.577 0-71.253l-43.004-43.004c-19.676-19.676-51.575-19.676-71.252 0l-43.004 43.004z" />
<glyph unicode="&#xe903;" glyph-name="brand_logo_4" horiz-adv-x="2988" d="M1345.576 357.88h-66.424v142.21c0 17.569-2.976 30.708-8.929 39.419-5.807 8.857-15.026 13.285-27.658 13.285-16.987 0-29.327-6.243-37.022-18.729s-11.543-33.030-11.543-61.633v-114.552h-66.422v243.479h50.742l8.929-31.143h3.703c6.533 11.18 15.969 19.891 28.311 26.134 12.34 6.389 26.496 9.582 42.467 9.582 36.441 0 61.123-11.905 74.045-35.716h5.879c6.533 11.324 16.117 20.109 28.748 26.352 12.776 6.243 27.149 9.364 43.12 9.364 27.586 0 48.42-7.114 62.503-21.341 14.229-14.084 21.343-36.733 21.343-67.948v-158.762h-66.641v142.21c0 17.569-2.976 30.708-8.929 39.419-5.808 8.857-15.028 13.285-27.658 13.285-16.261 0-28.457-5.808-36.587-17.423-7.986-11.615-11.977-30.054-11.977-55.316v-122.175zM1720.37 357.88l-12.842 33.104h-1.746c-11.18-14.084-22.713-23.884-34.626-29.401-11.759-5.372-27.149-8.058-46.169-8.058-23.374 0-41.813 6.678-55.316 20.035-13.357 13.357-20.035 32.377-20.035 57.059 0 25.843 9.001 44.863 27.005 57.059 18.148 12.34 45.442 19.164 81.885 20.472l42.254 1.306v10.671c0 24.682-12.641 37.022-37.898 37.022-19.456 0-42.323-5.879-68.601-17.64l-21.996 44.863c28.021 14.663 59.092 21.996 93.209 21.996 32.667 0 57.713-7.114 75.138-21.343s26.137-35.862 26.137-64.898v-162.247h-46.399zM1700.78 470.691l-25.702-0.871c-19.31-0.581-33.685-4.066-43.12-10.453-9.438-6.389-14.156-16.117-14.156-29.184 0-18.729 10.744-28.093 32.231-28.093 15.39 0 27.658 4.428 36.799 13.285 9.3 8.855 13.95 20.616 13.95 35.279v20.037zM2060.12 357.88h-66.426v142.21c0 17.569-3.122 30.708-9.367 39.419-6.245 8.857-16.199 13.285-29.83 13.285-18.6 0-32.029-6.243-40.305-18.729-8.276-12.342-12.406-32.886-12.406-61.633v-114.552h-66.426v243.479h50.747l8.931-31.143h3.693c7.403 11.761 17.576 20.618 30.502 26.57 13.060 6.097 27.866 9.145 44.418 9.145 28.319 0 49.807-7.695 64.462-23.084 14.672-15.246 22.008-37.314 22.008-66.206v-158.762zM2231.078 406.446c11.6 0 25.55 2.54 41.799 7.621v-49.436c-16.552-7.405-36.864-11.106-60.97-11.106-26.574 0-45.946 6.678-58.15 20.035-12.053 13.502-18.079 33.683-18.079 60.544v117.382h-31.794v28.095l36.595 22.212 19.154 51.396h42.471v-51.831h68.172v-49.872h-68.172v-117.382c0-9.438 2.619-16.408 7.839-20.908 5.372-4.501 12.422-6.75 21.135-6.75zM2547.074 357.88h-66.426v142.21c0 35.137-13.077 52.704-39.197 52.704-18.583 0-32.013-6.317-40.289-18.947-8.276-12.632-12.422-33.102-12.422-61.415v-114.552h-66.426v338.867h66.426v-69.036c0-5.372-0.504-18.004-1.528-37.895l-1.511-19.6h3.475c14.806 23.811 38.324 35.716 70.555 35.716 28.605 0 50.31-7.695 65.116-23.084 14.823-15.39 22.226-37.458 22.226-66.206v-158.762zM2787.932 357.88l-8.931 31.143h-3.475c-7.118-11.324-17.207-20.109-30.284-26.352-13.060-6.097-27.95-9.145-44.636-9.145-28.605 0-50.159 7.621-64.68 22.867-14.521 15.389-21.789 37.457-21.789 66.204v158.762h66.426v-142.21c0-17.567 3.122-30.78 9.367-39.636 6.245-8.712 16.183-13.067 29.83-13.067 18.583 0 32.013 6.169 40.289 18.511 8.276 12.486 12.422 33.102 12.422 61.85v114.552h66.426v-243.479h-50.965zM2975.005 357.88h-66.426v338.867h66.426v-338.867zM0 536.287c0 55.642 10.96 110.74 32.253 162.148 21.293 51.406 52.504 98.117 91.849 137.462s86.056 70.556 137.462 91.849c51.408 21.294 106.506 32.253 162.148 32.253s110.741-10.96 162.148-32.253c51.408-21.294 98.118-52.504 137.463-91.849s70.555-86.056 91.849-137.462c21.292-51.408 32.253-106.506 32.253-162.148h-211.856c0 27.821-5.481 55.37-16.127 81.074s-26.251 49.058-45.926 68.731c-19.673 19.673-43.026 35.278-68.731 45.926-25.704 10.646-53.253 16.125-81.074 16.125s-55.37-5.479-81.074-16.125c-25.704-10.648-49.058-26.253-68.731-45.926s-35.279-43.026-45.926-68.731c-10.646-25.704-16.125-53.253-16.127-81.074h-211.856zM278.634 186.034c-32.197 13.336-62.335 31.020-89.593 52.504l87.631 87.631c15.241-10.665 31.632-19.666 48.899-26.819 31.116-12.887 64.465-19.521 98.143-19.521s67.027 6.634 98.143 19.521c17.267 7.153 33.659 16.154 48.899 26.819l87.631-87.631c-27.259-21.484-57.396-39.169-89.592-52.504-45.996-19.053-95.294-28.858-145.081-28.858-49.785 0-99.083 9.805-145.079 28.858zM690.121 206.803c11.563 9.35 22.647 19.32 33.203 29.874l-149.806 149.804c-19.673-19.673-43.026-35.278-68.731-45.924s-53.253-16.127-81.074-16.127c-27.821 0-55.37 5.481-81.074 16.127s-49.058 26.251-68.731 45.924l-149.806-149.804c10.555-10.554 21.639-20.524 33.202-29.874 31.541-25.503 66.644-46.394 104.26-61.976 51.406-21.294 106.506-32.253 162.148-32.253 55.643 0 110.741 10.958 162.148 32.253 37.618 15.582 72.719 36.473 104.26 61.976z" />
<glyph unicode="&#xe904;" glyph-name="brand_logo_5" horiz-adv-x="5440" d="M1809.779 443.69h303.843l-87.43-411.242c-48.211-16.55-93.005-27.702-134.381-33.459-41.018-6.115-84.55-9.174-130.605-9.174-93.187 0-165.142 26.445-215.875 79.334-50.73 52.89-76.096 128.803-76.096 227.747 0 96.422 19.251 183.491 57.747 261.206 38.499 78.077 92.646 138.161 162.445 180.256 69.802 42.455 150.394 63.683 241.779 63.683 78.435 0 152.192-17.81 221.274-53.429l-62.064-135.461c-26.624 14.39-53.251 25.904-79.875 34.54s-55.587 12.952-86.89 12.952c-55.046 0-104.339-14.931-147.872-44.794-43.174-29.862-77.178-72.496-102.003-127.904-24.464-55.050-36.698-114.416-36.698-178.099 0-61.882 12.954-107.395 38.858-136.541 26.266-28.781 66.381-43.174 120.349-43.174 27.344 0 57.926 4.32 91.747 12.954l35.619 161.366h-144.096l30.224 139.238zM2348.384 0.608h-162.445l178.096 839.751h162.448l-178.099-839.751zM2928.547 376.23c0 70.877-25.725 106.317-77.174 106.317-26.986 0-51.27-10.973-72.858-32.922-21.229-21.946-38.678-54.147-52.349-96.602-13.312-42.458-19.968-86.173-19.968-131.146 0-66.56 26.982-99.84 80.95-99.84 26.986 0 51.27 10.973 72.858 32.918 21.59 22.307 38.32 53.069 50.192 92.288 12.234 39.578 18.349 82.573 18.349 128.986zM3092.074 376.23c0-75.917-12.774-143.197-38.317-201.843-25.187-58.646-61.706-104.16-109.558-136.541-47.853-32.022-104.698-48.032-170.541-48.032-70.16 0-126.285 21.046-168.381 63.142-41.738 42.454-62.605 98.762-62.605 168.922 0 76.637 12.774 144.816 38.317 204.541 25.907 60.086 63.146 106.499 111.715 139.238 48.573 33.101 105.421 49.651 170.541 49.651 70.522 0 126.288-21.226 167.302-63.68 41.018-42.458 61.526-100.922 61.526-175.398zM3602.624 464.739c-22.304-64.045-44.448-121.43-66.4-172.16l-125.728-291.971h-174.88l-27.52 603.37h151.648l2.176-267.146-2.176-90.128-3.776-92.285h2.176c2.144 7.194 4.672 14.57 7.552 22.125 2.88 7.917 12.064 32.563 27.52 73.939 15.488 41.376 23.744 62.784 24.832 64.221l124.672 289.274h177.024v-289.274c0-51.088-1.824-104.518-5.408-160.285h3.232l15.104 43.174c26.272 74.835 43.36 121.248 51.264 139.238l118.208 267.146h165.696l-286.048-603.37h-178.112l-3.232 280.637c0 55.766 1.824 116.931 5.408 183.494h-3.232zM4785.6 789.629l-108.48-510.544c-20.512-95.702-59.712-167.84-117.632-216.413s-133.312-72.858-226.144-72.858c-76.256 0-136.352 20.326-180.256 60.986-43.52 41.014-65.28 96.422-65.28 166.221 0 25.907 2.688 50.733 8.096 74.477l105.76 498.131h164.608l-104.704-495.971c-6.112-26.624-9.184-49.11-9.184-67.462 0-64.042 34.016-96.064 102.016-96.064 44.256 0 79.328 13.674 105.248 41.018 25.888 27.702 44.608 68.899 56.128 123.587l104.704 494.893h165.12zM5057.6 418.323h30.24c51.072 0 91.2 12.413 120.352 37.238 29.504 24.826 44.256 58.109 44.256 99.843 0 64.762-35.104 97.144-105.248 97.144h-39.936l-49.664-234.225zM5418.112 559.722c0-86.707-30.56-154.89-91.744-204.541-60.8-49.29-144.8-73.936-252.032-73.936h-46.4l-58.848-280.637h-164.576l166.752 789.021h182.4c87.072 0 152.928-19.249 197.536-57.746 44.608-38.138 66.912-95.524 66.912-172.161zM865.123 641.17h-337.27l124.502 258.651c11.693 30.289-21.917 60.179-67.802 60.179h-420.857c-35.071 0-64.882-17.735-69.558-41.448l-93.523-478.245c-5.553-28.694 27.18-54.202 69.558-54.202h346.915l-134.733-387.578c-10.521-30.288 23.381-58.784 68.097-58.784 24.55 0 47.93 8.768 60.79 23.914l514.378 605.776c27.181 31.683-6.429 71.736-60.496 71.736z" />
<glyph unicode="&#xe905;" glyph-name="customer_card_icon1" horiz-adv-x="1314" d="M1261.869 960v-75.114c-105.918-38.834-188.924-100.152-249.012-183.953-60.089-82.778-90.135-169.134-90.135-259.066 0-19.417 3.057-33.724 9.168-42.921 4.073-6.132 8.656-9.199 13.749-9.199s12.73 3.578 22.914 10.731c32.592 23.506 73.838 35.258 123.744 35.258 58.051 0 109.485-24.016 154.296-72.049 44.813-47.009 67.219-103.217 67.219-168.622 0-68.471-25.971-128.767-77.913-180.887-50.922-52.12-113.048-78.18-186.378-78.18-85.55 0-159.388 35.258-221.514 105.773s-93.188 165.046-93.188 283.592c0 137.964 42.266 261.62 126.796 370.97 84.532 109.349 217.952 197.237 400.255 263.665zM527.053 960v-75.114c-105.92-38.834-188.924-100.152-249.014-183.953-60.089-82.778-90.134-169.134-90.134-259.066 0-19.417 3.055-33.724 9.166-42.921 4.075-6.132 8.658-9.199 13.749-9.199 5.093 0 12.73 3.578 22.916 10.731 32.59 23.506 73.838 35.258 123.742 35.258 58.053 0 109.485-24.016 154.297-72.049 44.813-47.009 67.217-103.217 67.217-168.622 0-68.471-25.969-128.767-77.911-180.887-50.924-52.12-113.050-78.18-186.378-78.18-85.55 0-159.389 35.258-221.515 105.773s-93.189 165.046-93.189 283.592c0 137.964 42.266 261.62 126.798 370.97s217.95 197.237 400.255 263.665z" />
<glyph unicode="&#xe906;" glyph-name="customer_card_icon2" d="M47.803 501.092c26.401 0 47.803-21.402 47.803-47.803s-21.402-47.803-47.803-47.803c-26.401 0-47.803 21.402-47.803 47.803s21.402 47.803 47.803 47.803zM47.803 268.158c26.401 0 47.803-21.402 47.803-47.803s-21.402-47.803-47.803-47.803c-26.401 0-47.803 21.402-47.803 47.803s21.402 47.803 47.803 47.803zM47.803 35.23c26.401 0 47.803-21.402 47.803-47.803s-21.402-47.803-47.803-47.803c-26.401 0-47.803 21.402-47.803 47.803s21.402 47.803 47.803 47.803zM47.803 730.544c26.401 0 47.803-21.402 47.803-47.803s-21.402-47.803-47.803-47.803c-26.401 0-47.803 21.402-47.803 47.803s21.402 47.803 47.803 47.803zM47.803 960.001c26.401 0 47.803-21.402 47.803-47.803s-21.402-47.803-47.803-47.803c-26.401 0-47.803 21.402-47.803 47.803s21.402 47.803 47.803 47.803zM277.258 501.092c26.401 0 47.803-21.402 47.803-47.803s-21.402-47.803-47.803-47.803c-26.401 0-47.803 21.402-47.803 47.803s21.402 47.803 47.803 47.803zM277.258 268.158c26.401 0 47.803-21.402 47.803-47.803s-21.402-47.803-47.803-47.803c-26.401 0-47.803 21.402-47.803 47.803s21.402 47.803 47.803 47.803zM277.258 35.23c26.401 0 47.803-21.402 47.803-47.803s-21.402-47.803-47.803-47.803c-26.401 0-47.803 21.402-47.803 47.803s21.402 47.803 47.803 47.803zM277.258 730.544c26.401 0 47.803-21.402 47.803-47.803s-21.402-47.803-47.803-47.803c-26.401 0-47.803 21.402-47.803 47.803s21.402 47.803 47.803 47.803zM277.258 960c26.401 0 47.803-21.402 47.803-47.803s-21.402-47.803-47.803-47.803c-26.401 0-47.803 21.402-47.803 47.803s21.402 47.803 47.803 47.803zM506.712 501.092c26.401 0 47.803-21.402 47.803-47.803s-21.402-47.803-47.803-47.803c-26.401 0-47.803 21.402-47.803 47.803s21.402 47.803 47.803 47.803zM506.712 268.158c26.401 0 47.803-21.402 47.803-47.803s-21.402-47.803-47.803-47.803c-26.401 0-47.803 21.402-47.803 47.803s21.402 47.803 47.803 47.803zM506.712 35.23c26.401 0 47.803-21.402 47.803-47.803s-21.402-47.803-47.803-47.803c-26.401 0-47.803 21.402-47.803 47.803s21.402 47.803 47.803 47.803zM506.712 730.544c26.401 0 47.803-21.402 47.803-47.803s-21.402-47.803-47.803-47.803c-26.401 0-47.803 21.402-47.803 47.803s21.402 47.803 47.803 47.803zM506.712 960c26.401 0 47.803-21.402 47.803-47.803s-21.402-47.803-47.803-47.803c-26.401 0-47.803 21.402-47.803 47.803s21.402 47.803 47.803 47.803zM736.167 501.092c26.401 0 47.803-21.402 47.803-47.803s-21.402-47.803-47.803-47.803c-26.401 0-47.803 21.402-47.803 47.803s21.402 47.803 47.803 47.803zM736.167 268.158c26.401 0 47.803-21.402 47.803-47.803s-21.402-47.803-47.803-47.803c-26.401 0-47.803 21.402-47.803 47.803s21.402 47.803 47.803 47.803zM736.167 35.23c26.401 0 47.803-21.402 47.803-47.803s-21.402-47.803-47.803-47.803c-26.401 0-47.803 21.402-47.803 47.803s21.402 47.803 47.803 47.803zM736.167 730.544c26.401 0 47.803-21.402 47.803-47.803s-21.402-47.803-47.803-47.803c-26.401 0-47.803 21.402-47.803 47.803s21.402 47.803 47.803 47.803zM736.167 960c26.401 0 47.803-21.402 47.803-47.803s-21.402-47.803-47.803-47.803c-26.401 0-47.803 21.402-47.803 47.803s21.402 47.803 47.803 47.803zM965.621 501.092c26.401 0 47.803-21.402 47.803-47.803s-21.402-47.803-47.803-47.803c-26.401 0-47.803 21.402-47.803 47.803s21.402 47.803 47.803 47.803zM965.621 268.158c26.401 0 47.803-21.402 47.803-47.803s-21.402-47.803-47.803-47.803c-26.401 0-47.803 21.402-47.803 47.803s21.402 47.803 47.803 47.803zM965.621 35.23c26.401 0 47.803-21.402 47.803-47.803s-21.402-47.803-47.803-47.803c-26.401 0-47.803 21.402-47.803 47.803s21.402 47.803 47.803 47.803zM965.621 730.544c26.401 0 47.803-21.402 47.803-47.803s-21.402-47.803-47.803-47.803c-26.401 0-47.803 21.402-47.803 47.803s21.402 47.803 47.803 47.803zM965.621 960c26.401 0 47.803-21.402 47.803-47.803s-21.402-47.803-47.803-47.803c-26.401 0-47.803 21.402-47.803 47.803s21.402 47.803 47.803 47.803z" />
<glyph unicode="&#xe908;" glyph-name="featured_jobs_like" horiz-adv-x="1229" d="M902.4 957.192c-145.546 0-239.063-95.239-288-180.809-48.937 85.57-142.452 180.809-288 180.809-184.711 0-326.4-141.468-326.4-329.098 0-203.452 177.513-341.999 442.591-551.776 129.799-102.625 138.135-110.428 171.809-137.498 27.479 22.093 42.691 35.405 171.807 137.498 265.078 209.777 442.593 348.324 442.593 551.776 0 187.628-141.691 329.098-326.4 329.098z" />
<glyph unicode="&#xe909;" glyph-name="featured_jobs_location" horiz-adv-x="853" d="M426.667 960c-216.15 0-392-175.85-392-392 0-69.188 18.28-137.212 52.862-196.71 8.062-13.871 17.074-27.388 26.79-40.179l295.316-395.11h34.060l295.322 395.106c9.711 12.796 18.722 26.308 26.786 40.183 34.586 59.499 52.864 127.522 52.864 196.71 0 216.15-175.851 392-392 392zM426.667 437.999c-71.682 0-130 58.321-130 130.001 0 71.682 58.318 130 130 130 71.68 0 130.001-58.318 130.001-130 0-71.68-58.321-130.001-130.001-130.001z" />
<glyph unicode="&#xe90a;" glyph-name="featured_jobs_salary" d="M512.004 673.281c-124.394 0-232.102-86.397-259.087-207.833l-88.374-397.681c-0.648-2.918-0.975-5.899-0.975-8.887 0-22.619 18.338-40.96 40.96-40.96h614.954c2.988 0 5.968 0.329 8.887 0.976 22.082 4.908 36.005 26.789 31.097 48.87l-88.371 397.681c-26.986 121.435-134.693 207.833-259.090 207.833zM512.004 755.201c162.794 0 303.744-113.067 339.057-271.983l88.375-397.681c14.72-66.249-27.048-131.888-93.297-146.611-8.752-1.942-17.69-2.926-26.657-2.926h-614.954c-67.865 0-122.88 55.018-122.88 122.88 0 8.967 0.981 17.905 2.926 26.657l88.373 397.681c35.315 158.916 176.265 271.983 339.057 271.983zM593.927 509.44c22.623 0 40.96-18.337 40.96-40.96 0-22.619-18.337-40.96-40.96-40.96h-102.4c-11.312 0-20.48-9.168-20.48-20.48 0-11.308 9.168-20.48 20.48-20.48h40.96c56.554 0 102.4-45.846 102.4-102.4s-45.846-102.4-102.4-102.4h-102.4c-22.623 0-40.96 18.341-40.96 40.96 0 22.623 18.337 40.96 40.96 40.96h102.4c11.312 0 20.48 9.172 20.48 20.48 0 11.312-9.168 20.48-20.48 20.48h-40.96c-56.554 0-102.4 45.846-102.4 102.4s45.846 102.4 102.4 102.4h102.4zM471.047 550.4c0 22.623 18.341 40.96 40.96 40.96 22.623 0 40.964-18.337 40.964-40.96v-81.92c0-22.623-18.341-40.96-40.964-40.96-22.619 0-40.96 18.337-40.96 40.96v81.92zM552.971 140.8c0-22.623-18.341-40.96-40.964-40.96-22.619 0-40.96 18.337-40.96 40.96v81.92c0 22.623 18.341 40.96 40.96 40.96 22.623 0 40.964-18.337 40.964-40.96v-81.92zM468.118 729.452c8.4-21.004-1.818-44.841-22.821-53.243s-44.84 1.815-53.241 22.818l-81.921 204.8c-13.312 33.28 19.523 66.398 52.916 53.372 30.673-11.965 53.534-17.68 67.036-17.68 3.361 0 6.148 0.718 12.229 3.303 1.613 0.686 3.511 1.524 7.958 3.492 21.186 9.284 37.921 13.685 61.733 13.685 23.753 0 40.755-4.412 62.007-13.607 5.394-2.362 7.548-3.301 9.454-4.086 5.252-2.162 7.779-2.787 10.459-2.787 12.712 0 35.778 5.767 67.328 17.794 33.353 12.713 65.876-20.346 52.623-53.486l-81.92-204.8c-8.404-21.003-32.241-31.22-53.244-22.818s-31.221 32.239-22.817 53.243l51.54 128.852c-4.71-0.469-9.209-0.705-13.509-0.705-14.95 0-27.337 3.065-41.651 8.958-2.823 1.164-5.921 2.515-10.785 4.649-11.856 5.13-18.575 6.873-29.484 6.873-10.803 0-17.148-1.668-28.848-6.795-4.019-1.78-6.565-2.905-8.806-3.856-15.338-6.519-28.175-9.828-44.266-9.828-4.326 0-8.825 0.225-13.499 0.671l51.529-128.819z" />
<glyph unicode="&#xe90b;" glyph-name="featured_profile_layer_icon1" horiz-adv-x="1682" d="M1534.742 374.717h-1284.86l240.714-240.72c69.143-69.142-34.572-172.851-103.714-103.709l-365.571 366.144c-28.363 28.532-28.363 74.612 0 103.144l365.571 365.998c13.909 14.293 33.053 22.312 53 22.146 65.843-0.008 98.156-80.205 50.714-125.863l-241.286-240.718h1289.214c101.405-5.031 93.835-151.471-3.781-146.422z" />
<glyph unicode="&#xe90c;" glyph-name="featured_profile_layer_icon2" horiz-adv-x="1682" d="M147.547 374.717h1284.86l-240.72-240.72c-69.142-69.142 34.575-172.851 103.717-103.709l365.575 366.144c28.357 28.532 28.357 74.612 0 103.144l-365.575 365.998c-13.904 14.293-33.053 22.312-52.999 22.146-65.843-0.008-98.158-80.205-50.717-125.863l241.291-240.718h-1289.217c-101.405-5.031-93.833-151.471 3.786-146.422z" />
<glyph unicode="&#xe90d;" glyph-name="footer_facebook_icon" horiz-adv-x="569" d="M510.345 385.411l28.32 181.202h-177.072v117.588c0 49.574 24.736 97.895 104.041 97.895h80.5v154.274c0 0-73.052 12.242-142.896 12.242-145.824 0-241.142-86.788-241.142-243.897v-138.101h-162.095v-181.202h162.095v-438.044h199.497v438.044h148.752z" />
<glyph unicode="&#xe90e;" glyph-name="footer_in_icon" d="M912.824 919.050h-842.827c-38.619 0-69.998-30.491-69.998-67.922v-806.236c0-37.432 31.378-67.922 69.998-67.922h842.827c38.62 0 70.216 30.49 70.216 67.922v806.236c0 37.431-31.596 67.922-70.216 67.922zM297.106 111.555h-145.701v449.589h145.92v-449.589h-0.219zM224.256 622.547c-46.738 0-84.48 36.38-84.48 80.96s37.742 80.96 84.48 80.96c46.519 0 84.48-36.379 84.48-80.96 0-44.791-37.742-80.96-84.48-80.96zM843.264 111.555h-145.7v218.696c0 52.152-1.096 119.232-75.704 119.232-75.919 0-87.552-56.778-87.552-115.448v-222.479h-145.7v449.589h139.776v-61.404h1.976c19.528 35.328 67.144 72.549 138.020 72.549 147.456 0 174.884-93.157 174.884-214.283v-246.451z" />
<glyph unicode="&#xe90f;" glyph-name="footer_instagram_icon" d="M500.734 704.695c-142.061 0-256.649-114.613-256.649-256.707 0-142.091 114.588-256.705 256.649-256.705s256.651 114.614 256.651 256.705c0 142.094-114.591 256.707-256.651 256.707zM500.734 281.094c-91.804 0-166.855 74.849-166.855 166.895 0 92.048 74.828 166.893 166.855 166.893 92.026 0 166.857-74.845 166.857-166.893 0-92.046-75.054-166.895-166.857-166.895zM827.745 715.196c0-33.289-26.806-59.876-59.864-59.876-33.28 0-59.864 26.81-59.864 59.876s26.806 59.876 59.864 59.876c33.058 0 59.864-26.81 59.864-59.876zM997.729 654.426c-3.8 80.207-22.118 151.253-80.862 209.789-58.522 58.536-129.553 76.856-209.744 80.877-82.642 4.692-330.358 4.692-413.004 0-79.965-3.798-150.996-22.118-209.742-80.654s-76.838-129.582-80.859-209.789c-4.691-82.665-4.691-330.435 0-413.1 3.797-80.208 22.113-151.25 80.859-209.789 58.746-58.533 129.553-76.857 209.742-80.873 82.646-4.693 330.362-4.693 413.004 0 80.191 3.794 151.222 22.118 209.744 80.873 58.522 58.539 76.84 129.582 80.862 209.789 4.688 82.665 4.688 330.212 0 412.876zM890.954 152.855c-17.419-43.787-51.149-77.528-95.152-95.175-65.894-26.14-222.248-20.11-295.068-20.11-72.818 0-229.398-5.808-295.068 20.11-43.78 17.425-77.508 51.16-95.154 95.175-26.134 65.906-20.103 222.299-20.103 295.134s-5.807 229.45 20.103 295.134c17.422 43.79 51.151 77.526 95.154 95.176 65.894 26.14 222.251 20.107 295.068 20.107 72.82 0 229.401 5.809 295.068-20.107 43.782-17.426 77.511-51.162 95.152-95.176 26.135-65.908 20.105-222.3 20.105-295.134s6.030-229.45-20.105-295.134z" />
<glyph unicode="&#xe910;" glyph-name="footer_location_icon" horiz-adv-x="838" d="M634.95 250.438c-64.707-89.819-144.272-163.179-201.002-209.641-9.304-7.619-20.773-7.619-30.078 0-56.73 46.462-136.295 119.822-201.004 209.641-65.199 90.503-109.776 189.971-109.776 290.653 0 179.944 145.874 325.818 325.818 325.818s325.818-145.874 325.818-325.818c0-100.682-44.577-200.15-109.777-290.653zM492.935-31.218c120.283 98.518 344.883 316.695 344.883 572.309 0 231.357-187.55 418.909-418.909 418.909-231.357 0-418.909-187.552-418.909-418.909 0-255.614 224.599-473.791 344.883-572.309 43.613-35.719 104.439-35.719 148.052 0zM418.91 634.182c-51.414 0-93.090-41.678-93.090-93.090 0-51.415 41.677-93.091 93.090-93.091s93.090 41.677 93.090 93.091c0 51.413-41.677 93.090-93.090 93.090zM232.729 541.091c0 102.825 83.356 186.181 186.181 186.181 102.823 0 186.181-83.356 186.181-186.181s-83.358-186.182-186.181-186.182c-102.825 0-186.181 83.358-186.181 186.182z" />
<glyph unicode="&#xe911;" glyph-name="footer_logo_ziro" horiz-adv-x="2587" d="M1415.508 183.973c-32.225 0-58.199 9.997-77.921 29.991-19.72 20.482-29.579 46.57-29.579 78.268 0 15.606 2.885 30.235 8.657 43.89 5.772 13.653 15.391 26.577 28.859 38.768l228.71 206.279c2.406 2.438 3.607 5.364 3.607 8.778 0 3.902-1.443 7.071-4.328 9.509-2.887 2.926-6.013 4.389-9.379 4.389h-243.861v92.167h259.013c32.225 0 58.199-10.24 77.919-30.722 19.72-19.995 29.581-45.839 29.581-77.538 0-15.116-2.885-29.746-8.657-43.888-5.291-13.655-14.19-26.089-26.696-37.306l-231.595-207.741c-2.406-2.438-3.607-5.364-3.607-8.778s1.443-6.584 4.328-9.509c2.887-2.926 6.013-4.389 9.379-4.389h260.455v-92.167h-274.885zM1762.259 183.973v373.056h99.571v-373.056h-99.571zM1812.049 601.65c-16.842 0-31.512 6.095-44.018 18.286-12.026 12.68-18.039 27.553-18.039 44.621s6.013 31.697 18.039 43.888c12.505 12.68 27.176 19.019 44.018 19.019 16.833 0 31.259-6.34 43.277-19.019 12.504-12.191 18.755-26.822 18.755-43.888 0-17.068-6.252-31.942-18.755-44.621-12.019-12.191-26.444-18.286-43.277-18.286zM1951.007 183.973v266.991c0 33.161 9.126 59.006 27.414 77.537 18.755 19.019 44.481 28.528 77.195 28.528h101.735v-85.583h-84.417c-6.252 0-11.785-2.195-16.6-6.584-4.33-4.389-6.485-9.996-6.485-16.824v-264.064h-98.843zM2388.543 175.196c-37.996 0-71.914 8.533-101.735 25.602-29.822 17.555-53.392 40.964-70.71 70.221-17.3 29.748-25.959 62.908-25.959 99.482s8.659 69.49 25.959 98.75c17.318 29.748 40.888 53.155 70.71 70.223 29.822 17.555 63.74 26.333 101.735 26.333s71.896-8.778 101.717-26.333c29.822-17.068 53.392-40.475 70.71-70.223 17.318-29.259 25.977-62.175 25.977-98.75s-8.659-69.734-25.977-99.482c-17.318-29.258-40.888-52.666-70.71-70.221-29.822-17.068-63.722-25.602-101.717-25.602zM2388.543 260.779c30.307 0 54.11 10.484 71.428 31.453 17.785 21.457 26.696 47.548 26.696 78.27s-8.911 56.568-26.696 77.537c-17.318 21.457-41.122 32.186-71.428 32.186s-54.362-10.729-72.147-32.186c-17.318-20.969-25.977-46.815-25.977-77.537s8.659-56.812 25.977-78.27c17.785-20.969 41.84-31.453 72.147-31.453zM657.131 797.624l-452.732-320.918c-17.489-12.399-17.498-38.413 0-50.816l452.732-320.92c20.541-14.562 49.152 0.137 49.152 25.41v641.836c0 25.209-28.546 40.018-49.152 25.408zM13.134 662.045c-24.704-17.512-12.22-56.552 18.008-56.552h97.835v138.669l-115.844-82.118zM986.187 382.159h-217.627v-223.581l235.635 167.029c24.704 17.509 12.22 56.552-18.008 56.552zM240.415 797.748c-20.608 14.608-49.152-0.201-49.152-25.406v-228.474l203.656 144.361-154.504 109.519z" />
<glyph unicode="&#xe912;" glyph-name="footer_mail_icon" horiz-adv-x="1252" d="M1080.889 846.222c31.42 0 56.889-25.47 56.889-56.889v-682.667c0-31.42-25.469-56.889-56.889-56.889h-910.222c-31.419 0-56.889 25.469-56.889 56.889v682.667c0 31.419 25.47 56.889 56.889 56.889h910.222zM170.667 960c-94.256 0-170.667-76.41-170.667-170.667v-682.667c0-94.259 76.41-170.667 170.667-170.667h910.222c94.259 0 170.667 76.407 170.667 170.667v682.667c0 94.256-76.407 170.667-170.667 170.667h-910.222zM240.737 711.974c20.114 24.137 55.986 27.398 80.123 7.284l268.492-223.745c21.1-17.579 51.74-17.579 72.841 0l268.493 223.745c24.138 20.114 60.012 16.853 80.122-7.284 20.116-24.137 16.856-60.009-7.282-80.123l-268.498-223.742c-63.289-52.746-155.221-52.746-218.514 0l-268.492 223.742c-24.137 20.114-27.398 55.986-7.284 80.123z" />
<glyph unicode="&#xe913;" glyph-name="footer_phone_icon" d="M129.101 894.055c62.948 62.948 167.055 55.55 220.468-15.668l88.664-118.216c43.676-58.239 37.888-139.735-13.59-191.211l-65.369-65.369c6.335-16.491 27.19-52.675 90.696-116.183s99.693-84.363 116.185-90.697l65.365 65.365c51.478 51.478 132.974 57.271 191.21 13.59l118.218-88.664c71.217-53.414 78.619-157.52 15.667-220.467-20.465-20.465-23.927-23.927-58.080-58.080-34.806-34.806-108.71-67.34-183.54-70.593-117.092-5.091-276.138 46.899-471.904 242.664-195.763 195.764-247.756 354.816-242.665 471.91 2.832 65.136 23.541 136.676 70.866 183.266 33.88 34.424 38.286 38.831 57.808 58.353zM97.859 648.2c-3.529-81.166 30.678-215.199 214.193-398.714s317.542-217.722 398.711-214.192c75.766 3.296 116.414 39.907 118.813 42.121l58.080 58.080c20.982 20.982 18.52 55.686-5.222 73.489l-118.218 88.664c-19.412 14.56-46.577 12.629-63.737-4.53-25.849-25.854-43.5-43.759-78.043-78.175-71.758-71.49-194.594 56.676-241.424 103.502-43.036 43.037-174.189 169.777-103.575 241.228 0.14 0.14 19.16 19.16 78.246 78.247 17.159 17.159 19.090 44.324 4.53 63.737l-88.663 118.216c-17.804 23.739-52.507 26.206-73.489 5.223-19.313-19.312-41.169-41.168-58.022-58.139-34.688-34.928-40.324-76.061-42.18-118.757z" />
<glyph unicode="&#xe914;" glyph-name="footer_twitter_icon" horiz-adv-x="1152" d="M1010.611 698.278c0.717-10.915 0.717-21.833 0.717-32.748 0-332.928-232.282-716.538-656.827-716.538-130.794 0-252.296 41.325-354.501 113.056 18.583-2.342 36.45-3.123 55.748-3.123 107.921 0 207.268 39.763 286.603 107.597-101.491 2.342-186.542 74.854-215.846 174.656 14.296-2.338 28.589-3.898 43.6-3.898 20.726 0 41.454 3.12 60.751 8.575-105.779 23.393-185.115 124.752-185.115 247.164v3.118c30.732-18.713 66.471-30.408 104.348-31.966-62.18 45.224-102.918 122.412-102.918 209.739 0 46.781 11.433 89.664 31.447 127.089 113.641-152.82 284.46-252.619 476.003-263.537-3.573 18.713-5.718 38.203-5.718 57.696 0 138.787 102.918 251.842 230.854 251.842 66.47 0 126.502-30.408 168.672-79.529 52.173 10.915 102.208 31.968 146.522 60.816-17.158-58.479-53.606-107.599-101.491-138.785 46.458 5.455 91.482 19.493 132.934 38.984-31.443-49.899-70.752-94.339-115.782-130.207z" />
<glyph unicode="&#xe915;" glyph-name="footer_youtobe_icon" horiz-adv-x="1347" d="M1319.214 797.422c-15.495 59.748-61.154 106.803-119.124 122.772-105.073 29.017-526.406 29.017-526.406 29.017s-421.332 0-526.408-29.017c-57.969-15.972-103.626-63.024-119.121-122.772-28.155-108.296-28.155-334.244-28.155-334.244s0-225.949 28.155-334.245c15.496-59.748 61.152-104.841 119.121-120.81 105.076-29.017 526.408-29.017 526.408-29.017s421.333 0 526.406 29.017c57.969 15.969 103.629 61.063 119.124 120.81 28.155 108.296 28.155 334.245 28.155 334.245s0 225.948-28.155 334.244zM535.884 258.032v410.29l352.15-205.15-352.15-205.141z" />
<glyph unicode="&#xe916;" horiz-adv-x="2587" d="M1415.508 183.973c-32.225 0-58.199 9.997-77.921 29.991-19.72 20.482-29.579 46.57-29.579 78.268 0 15.606 2.885 30.235 8.657 43.89 5.772 13.653 15.391 26.577 28.859 38.768l228.71 206.279c2.406 2.438 3.607 5.364 3.607 8.778 0 3.902-1.443 7.071-4.328 9.509-2.887 2.926-6.013 4.389-9.379 4.389h-243.861v92.167h259.013c32.225 0 58.199-10.24 77.919-30.722 19.72-19.995 29.581-45.839 29.581-77.538 0-15.116-2.885-29.746-8.657-43.888-5.291-13.655-14.19-26.089-26.696-37.306l-231.595-207.741c-2.406-2.438-3.607-5.364-3.607-8.778s1.443-6.584 4.328-9.509c2.887-2.926 6.013-4.389 9.379-4.389h260.455v-92.167h-274.885z" />
<glyph unicode="&#xe917;" horiz-adv-x="2587" d="M1762.259 183.973v373.056h99.571v-373.056h-99.571zM1812.049 601.65c-16.842 0-31.512 6.095-44.018 18.286-12.026 12.68-18.039 27.553-18.039 44.621s6.013 31.697 18.039 43.888c12.505 12.68 27.176 19.019 44.018 19.019 16.833 0 31.259-6.34 43.277-19.019 12.504-12.191 18.755-26.822 18.755-43.888 0-17.068-6.252-31.942-18.755-44.621-12.019-12.191-26.444-18.286-43.277-18.286z" />
<glyph unicode="&#xe918;" horiz-adv-x="2587" d="M1951.007 183.973v266.991c0 33.161 9.126 59.006 27.414 77.537 18.755 19.019 44.481 28.528 77.195 28.528h101.735v-85.583h-84.417c-6.252 0-11.785-2.195-16.6-6.584-4.33-4.389-6.485-9.996-6.485-16.824v-264.064h-98.843z" />
<glyph unicode="&#xe919;" horiz-adv-x="2587" d="M2388.543 175.196c-37.996 0-71.914 8.533-101.735 25.602-29.822 17.555-53.392 40.964-70.71 70.221-17.3 29.748-25.959 62.908-25.959 99.482s8.659 69.49 25.959 98.75c17.318 29.748 40.888 53.155 70.71 70.223 29.822 17.555 63.74 26.333 101.735 26.333s71.896-8.778 101.717-26.333c29.822-17.068 53.392-40.475 70.71-70.223 17.318-29.259 25.977-62.175 25.977-98.75s-8.659-69.734-25.977-99.482c-17.318-29.258-40.888-52.666-70.71-70.221-29.822-17.068-63.722-25.602-101.717-25.602zM2388.543 260.779c30.307 0 54.11 10.484 71.428 31.453 17.785 21.457 26.696 47.548 26.696 78.27s-8.911 56.568-26.696 77.537c-17.318 21.457-41.122 32.186-71.428 32.186s-54.362-10.729-72.147-32.186c-17.318-20.969-25.977-46.815-25.977-77.537s8.659-56.812 25.977-78.27c17.785-20.969 41.84-31.453 72.147-31.453z" />
<glyph unicode="&#xe91a;" horiz-adv-x="2587" d="M657.131 797.62l-452.732-320.919c-17.489-12.399-17.498-38.413 0-50.816l452.732-320.918c20.541-14.562 49.152 0.135 49.152 25.41v641.836c0 25.208-28.546 40.017-49.152 25.407z" />
<glyph unicode="&#xe91b;" horiz-adv-x="2587" d="M13.134 662.048c-24.704-17.51-12.22-56.552 18.008-56.552h97.835v138.669l-115.844-82.118z" />
<glyph unicode="&#xe91c;" horiz-adv-x="2587" d="M986.187 382.159h-217.627v-223.581l235.635 167.029c24.704 17.509 12.22 56.552-18.008 56.552z" />
<glyph unicode="&#xe91d;" horiz-adv-x="2587" d="M240.415 797.744c-20.608 14.608-49.152-0.201-49.152-25.405v-228.474l203.656 144.361-154.504 109.519z" />
<glyph unicode="&#xe91f;" glyph-name="play_icon" d="M512 960c-282.768 0-512-229.232-512-512s229.232-512 512-512c282.786 0 512 229.231 512 512s-229.214 512-512 512zM512 38.4c-225.854 0-409.6 183.744-409.6 409.6 0 225.854 183.746 409.6 409.6 409.6 225.856 0 409.6-183.746 409.6-409.6 0-225.856-183.744-409.6-409.6-409.6zM698.227 483.844l-248.303 143.362c-34.139 19.702-62.073 3.584-62.073-35.84v-286.717c0-39.424 27.934-55.565 62.073-35.84l248.303 143.356c34.138 19.703 34.138 51.981 0 71.68z" />
<glyph unicode="&#xe920;" glyph-name="rating_star_icon" horiz-adv-x="975" d="M945.493 491.885c13.395 13.692 22.723 30.837 26.941 49.521 4.223 18.684 3.165 38.173-3.048 56.292-5.827 18.173-16.642 34.344-31.212 46.672s-32.305 20.317-51.195 23.058l-209.189 32.183c-0.975 0.283-1.872 0.78-2.633 1.455s-1.36 1.511-1.755 2.446l-91.672 195.048c-8.036 18.264-21.216 33.797-37.922 44.706-16.711 10.909-36.23 16.723-56.188 16.735-19.723 0.082-39.051-5.535-55.659-16.175s-29.791-25.85-37.962-43.802l-91.672-195.048c-0.5-0.951-1.192-1.788-2.031-2.46s-1.808-1.162-2.845-1.441l-208.701-33.646c-18.915-2.818-36.678-10.827-51.312-23.138s-25.568-28.439-31.583-46.592c-5.983-18.182-6.874-37.656-2.576-56.309s13.621-35.774 26.957-49.505l154.088-158.475c0.444-1 0.673-2.077 0.673-3.17s-0.229-2.175-0.673-3.17l-36.084-221.379c-3.354-19.28-1.168-39.117 6.306-57.203s19.928-33.68 35.914-44.963c15.986-11.288 34.848-17.808 54.391-18.798s38.968 3.584 56.014 13.2l181.882 100.937c0.904 0.468 1.907 0.717 2.926 0.717s2.022-0.249 2.924-0.717l181.882-100.937c17.072-9.406 36.44-13.819 55.896-12.741 19.461 1.083 38.22 7.621 54.14 18.861s28.36 26.731 35.889 44.705c7.529 17.979 9.855 37.708 6.7 56.939l-33.646 220.404c-0.512 0.887-0.78 1.897-0.78 2.926 0 1.024 0.268 2.033 0.78 2.926l156.038 159.938z" />
<glyph unicode="&#xe921;" glyph-name="steps_card_icon" horiz-adv-x="1955" d="M1830.205 703.933l-837.809-744.725c-16.989-14.922-38.828-23.152-61.44-23.152-22.617 0-44.456 8.229-61.445 23.152l-837.818 744.725c-17.299 16.617-27.517 39.269-28.523 63.235s7.278 47.394 23.124 65.401c15.846 18.008 38.032 29.203 61.931 31.252s47.667-5.206 66.347-20.252l776.383-689.803 776.378 689.803c9.058 8.705 19.791 15.485 31.539 19.932 11.757 4.446 24.287 6.467 36.845 5.94s24.874-3.59 36.212-9.006c11.338-5.415 21.467-13.071 29.77-22.505s14.606-20.45 18.534-32.386c3.928-11.936 5.399-24.544 4.329-37.065s-4.673-24.694-10.575-35.787c-5.902-11.093-13.992-20.876-23.785-28.759z" />
<glyph unicode="&#xe922;" horiz-adv-x="1035" d="M205.534 857.233h623.943c34.459 0 62.394-27.935 62.394-62.394v-612.932c0-34.459-27.935-62.394-62.394-62.394h-623.943c-34.459 0-62.394 27.935-62.394 62.394v612.932c0 34.459 27.935 62.394 62.394 62.394z" />
<glyph unicode="&#xe923;" horiz-adv-x="1035" d="M260.588 373.292l9.167-29.461c11.936-38.358 37.964-33.612 46.959 8.559l34.544 161.957c6.496 30.452 20.252 49.849 35.351 49.849h5.59c8.68 0 17.114-6.445 23.978-18.318l26.404-45.687 39.569-67.202 22.198-35.389c15.048-23.992 35.557-21.199 49.192 6.698l56.386 115.371c12.883 26.36 32.027 30.467 46.917 10.064l18.021-24.686c16.369-22.429 37.602-15.026 50.136 17.474l16.868 43.738c12.798 33.183 34.607 40.11 51.035 16.211l25.563-37.187" />
<glyph unicode="&#xe924;" horiz-adv-x="1035" d="M693.677 536.086c0-25.338-20.54-45.878-45.878-45.878s-45.878 20.54-45.878 45.878c0 25.338 20.54 45.878 45.878 45.878s45.878-20.54 45.878-45.878z" />
<glyph unicode="&#xe925;" horiz-adv-x="1035" d="M686.337 536.086c0-21.284-17.254-38.538-38.538-38.538s-38.538 17.254-38.538 38.538c0 21.284 17.254 38.538 38.538 38.538s38.538-17.254 38.538-38.538z" />
<glyph unicode="&#xe926;" glyph-name="steps_circle_element" horiz-adv-x="1324" d="M42.974 35.576c23.734 0 42.974-19.24 42.974-42.974s-19.24-42.974-42.974-42.974c-23.734 0-42.974 19.24-42.974 42.974s19.24 42.974 42.974 42.974zM42.974 343.719c23.734 0 42.974-19.24 42.974-42.974s-19.24-42.974-42.974-42.974c-23.734 0-42.974 19.24-42.974 42.974s19.24 42.974 42.974 42.974zM42.974 651.862c23.734 0 42.974-19.24 42.974-42.974s-19.24-42.974-42.974-42.974c-23.734 0-42.974 19.24-42.974 42.974s19.24 42.974 42.974 42.974zM42.974 959.999c23.734 0 42.974-19.24 42.974-42.974s-19.24-42.974-42.974-42.974c-23.734 0-42.974 19.24-42.974 42.974s19.24 42.974 42.974 42.974zM351.115 35.576c23.734 0 42.974-19.24 42.974-42.974s-19.24-42.974-42.974-42.974c-23.734 0-42.974 19.24-42.974 42.974s19.24 42.974 42.974 42.974zM351.115 343.719c23.734 0 42.974-19.24 42.974-42.974s-19.24-42.974-42.974-42.974c-23.734 0-42.974 19.24-42.974 42.974s19.24 42.974 42.974 42.974zM351.115 651.862c23.734 0 42.974-19.24 42.974-42.974s-19.24-42.974-42.974-42.974c-23.734 0-42.974 19.24-42.974 42.974s19.24 42.974 42.974 42.974zM351.115 959.999c23.734 0 42.974-19.24 42.974-42.974s-19.24-42.974-42.974-42.974c-23.734 0-42.974 19.24-42.974 42.974s19.24 42.974 42.974 42.974zM659.258 35.576c23.734 0 42.974-19.24 42.974-42.974s-19.24-42.974-42.974-42.974c-23.734 0-42.974 19.24-42.974 42.974s19.24 42.974 42.974 42.974zM659.258 343.719c23.734 0 42.974-19.24 42.974-42.974s-19.24-42.974-42.974-42.974c-23.734 0-42.974 19.24-42.974 42.974s19.24 42.974 42.974 42.974zM659.258 651.862c23.734 0 42.974-19.24 42.974-42.974s-19.24-42.974-42.974-42.974c-23.734 0-42.974 19.24-42.974 42.974s19.24 42.974 42.974 42.974zM659.258 959.999c23.734 0 42.974-19.24 42.974-42.974s-19.24-42.974-42.974-42.974c-23.734 0-42.974 19.24-42.974 42.974s19.24 42.974 42.974 42.974zM967.401 35.576c23.734 0 42.974-19.24 42.974-42.974s-19.24-42.974-42.974-42.974c-23.734 0-42.974 19.24-42.974 42.974s19.24 42.974 42.974 42.974zM967.401 343.719c23.734 0 42.974-19.24 42.974-42.974s-19.24-42.974-42.974-42.974c-23.734 0-42.974 19.24-42.974 42.974s19.24 42.974 42.974 42.974zM967.401 651.862c23.734 0 42.974-19.24 42.974-42.974s-19.24-42.974-42.974-42.974c-23.734 0-42.974 19.24-42.974 42.974s19.24 42.974 42.974 42.974zM967.401 959.999c23.734 0 42.974-19.24 42.974-42.974s-19.24-42.974-42.974-42.974c-23.734 0-42.974 19.24-42.974 42.974s19.24 42.974 42.974 42.974zM1275.542 35.576c23.734 0 42.974-19.24 42.974-42.974s-19.24-42.974-42.974-42.974c-23.734 0-42.974 19.24-42.974 42.974s19.24 42.974 42.974 42.974zM1275.542 343.719c23.734 0 42.974-19.24 42.974-42.974s-19.24-42.974-42.974-42.974c-23.734 0-42.974 19.24-42.974 42.974s19.24 42.974 42.974 42.974zM1275.542 651.862c23.734 0 42.974-19.24 42.974-42.974s-19.24-42.974-42.974-42.974c-23.734 0-42.974 19.24-42.974 42.974s19.24 42.974 42.974 42.974zM1275.542 959.999c23.734 0 42.974-19.24 42.974-42.974s-19.24-42.974-42.974-42.974c-23.734 0-42.974 19.24-42.974 42.974s19.24 42.974 42.974 42.974z" />
<glyph unicode="&#xe928;" glyph-name="whychooseus_card_icon" horiz-adv-x="1049" d="M476.65 494.719c-26.437-25.805-26.437-67.634 0-93.419 26.414-25.807 69.282-25.807 95.699 0 26.434 25.807 26.434 67.634 0 93.419-26.437 25.787-69.285 25.787-95.699 0zM524.488 960c-289.674 0-524.488-229.223-524.488-512s234.814-512 524.488-512c289.675 0 524.488 229.224 524.488 512s-234.813 512-524.488 512zM791.257 654.348l-139.519-298.014c-6.748-14.411-18.587-25.97-33.35-32.556l-305.262-136.197c-35.211-15.712-71.503 19.716-55.408 54.090l139.539 298.014c6.748 14.411 18.587 25.97 33.352 32.558l305.259 136.194c35.213 15.691 71.483-19.716 55.388-54.090z" />
</font>
</defs>
</svg>
