<svg width="42" height="23" viewBox="0 0 42 23" fill="none" xmlns="http://www.w3.org/2000/svg">
<circle cx="1.94536" cy="20.6208" r="1.94536" transform="rotate(-90 1.94536 20.6208)" fill="white"/>
<circle cx="1.94536" cy="11.283" r="1.94536" transform="rotate(-90 1.94536 11.283)" fill="white"/>
<circle cx="1.94536" cy="1.94539" r="1.94536" transform="rotate(-90 1.94536 1.94539)" fill="white"/>
<circle cx="11.2831" cy="20.6208" r="1.94536" transform="rotate(-90 11.2831 20.6208)" fill="white"/>
<circle cx="11.2831" cy="11.283" r="1.94536" transform="rotate(-90 11.2831 11.283)" fill="white"/>
<circle cx="11.2831" cy="1.94539" r="1.94536" transform="rotate(-90 11.2831 1.94539)" fill="white"/>
<circle cx="20.6207" cy="20.6208" r="1.94536" transform="rotate(-90 20.6207 20.6208)" fill="white"/>
<circle cx="20.6207" cy="11.283" r="1.94536" transform="rotate(-90 20.6207 11.283)" fill="white"/>
<circle cx="20.6207" cy="1.94539" r="1.94536" transform="rotate(-90 20.6207 1.94539)" fill="white"/>
<circle cx="29.9585" cy="20.6208" r="1.94536" transform="rotate(-90 29.9585 20.6208)" fill="white"/>
<circle cx="29.9585" cy="11.283" r="1.94536" transform="rotate(-90 29.9585 11.283)" fill="white"/>
<circle cx="29.9585" cy="1.94539" r="1.94536" transform="rotate(-90 29.9585 1.94539)" fill="white"/>
<circle cx="39.2963" cy="20.6208" r="1.94536" transform="rotate(-90 39.2963 20.6208)" fill="white"/>
<circle cx="39.2963" cy="11.283" r="1.94536" transform="rotate(-90 39.2963 11.283)" fill="white"/>
<circle cx="39.2963" cy="1.94539" r="1.94536" transform="rotate(-90 39.2963 1.94539)" fill="white"/>
</svg>
