<svg width="43" height="78" viewBox="0 0 43 78" fill="none" xmlns="http://www.w3.org/2000/svg">
<circle cx="38.9518" cy="74.2289" r="3.6747" transform="rotate(180 38.9518 74.2289)" fill="white" fill-opacity="0.17"/>
<circle cx="21.3131" cy="74.2289" r="3.6747" transform="rotate(180 21.3131 74.2289)" fill="white" fill-opacity="0.17"/>
<circle cx="3.67466" cy="74.2289" r="3.6747" transform="rotate(180 3.67466 74.2289)" fill="white" fill-opacity="0.17"/>
<circle cx="38.9518" cy="56.5904" r="3.6747" transform="rotate(180 38.9518 56.5904)" fill="white" fill-opacity="0.17"/>
<circle cx="21.3131" cy="56.5904" r="3.6747" transform="rotate(180 21.3131 56.5904)" fill="white" fill-opacity="0.17"/>
<circle cx="3.67466" cy="56.5904" r="3.6747" transform="rotate(180 3.67466 56.5904)" fill="white" fill-opacity="0.17"/>
<circle cx="38.9518" cy="38.952" r="3.6747" transform="rotate(180 38.9518 38.952)" fill="white" fill-opacity="0.17"/>
<circle cx="21.3131" cy="38.952" r="3.6747" transform="rotate(180 21.3131 38.952)" fill="white" fill-opacity="0.17"/>
<circle cx="3.67466" cy="38.952" r="3.6747" transform="rotate(180 3.67466 38.952)" fill="white" fill-opacity="0.17"/>
<circle cx="38.9518" cy="21.3131" r="3.6747" transform="rotate(180 38.9518 21.3131)" fill="white" fill-opacity="0.17"/>
<circle cx="21.3131" cy="21.3131" r="3.6747" transform="rotate(180 21.3131 21.3131)" fill="white" fill-opacity="0.17"/>
<circle cx="3.67466" cy="21.3131" r="3.6747" transform="rotate(180 3.67466 21.3131)" fill="white" fill-opacity="0.17"/>
<circle cx="38.9518" cy="3.67466" r="3.6747" transform="rotate(180 38.9518 3.67466)" fill="white" fill-opacity="0.17"/>
<circle cx="21.3131" cy="3.67466" r="3.6747" transform="rotate(180 21.3131 3.67466)" fill="white" fill-opacity="0.17"/>
<circle cx="3.67466" cy="3.67466" r="3.6747" transform="rotate(180 3.67466 3.67466)" fill="white" fill-opacity="0.17"/>
</svg>
