<svg width="40" height="40" viewBox="0 0 40 40" fill="none" xmlns="http://www.w3.org/2000/svg">
<path d="M20.001 0.000244141C23.9566 0.000244141 27.8234 1.17322 31.1124 3.37085C34.4014 5.56848 36.9648 8.69205 38.4786 12.3466C39.9923 16.0011 40.3884 20.0224 39.6167 23.9021C38.845 27.7817 36.9402 31.3453 34.1431 34.1424C31.3461 36.9394 27.7824 38.8443 23.9028 39.616C20.0232 40.3877 16.0018 39.9916 12.3473 38.4778C8.69278 36.9641 5.56921 34.4006 3.37158 31.1117C1.17395 27.8227 0.000968933 23.9559 0.000968933 20.0002C0.000968933 17.3738 0.518284 14.7731 1.52338 12.3466C2.52847 9.92006 4.00166 7.71528 5.85883 5.85811C7.716 4.00094 9.92079 2.52775 12.3473 1.52265C14.7738 0.51756 17.3745 0.000244141 20.001 0.000244141ZM14.621 26.5802C14.4335 26.7662 14.2847 26.9874 14.1832 27.2311C14.0816 27.4748 14.0294 27.7362 14.0294 28.0002C14.0294 28.2643 14.0816 28.5257 14.1832 28.7694C14.2847 29.0131 14.4335 29.2343 14.621 29.4202C14.9885 29.7849 15.4832 29.9928 16.001 30.0002C16.2642 30.0018 16.5251 29.9513 16.7688 29.8518C17.0125 29.7523 17.2341 29.6056 17.421 29.4202L25.421 21.4202C25.6084 21.2343 25.7572 21.0131 25.8588 20.7694C25.9603 20.5257 26.0126 20.2643 26.0126 20.0002C26.0126 19.7362 25.9603 19.4748 25.8588 19.2311C25.7572 18.9874 25.6084 18.7662 25.421 18.5802L17.421 10.5802C17.2345 10.3938 17.0131 10.2458 16.7695 10.1449C16.5258 10.044 16.2647 9.99206 16.001 9.99206C15.7372 9.99206 15.4761 10.044 15.2325 10.1449C14.9888 10.2458 14.7674 10.3938 14.581 10.5802C14.3945 10.7667 14.2466 10.9881 14.1456 11.2317C14.0447 11.4754 13.9928 11.7365 13.9928 12.0002C13.9928 12.264 14.0447 12.5251 14.1456 12.7687C14.2466 13.0124 14.3945 13.2338 14.581 13.4202L21.161 20.0002L14.621 26.5802Z" fill="white"/>
</svg>
