<svg width="20" height="20" viewBox="0 0 21 11" fill="none" xmlns="http://www.w3.org/2000/svg">
<path d="M19.6605 2.74998L10.6605 10.75C10.478 10.9103 10.2434 10.9987 10.0005 10.9987C9.75757 10.9987 9.52297 10.9103 9.34048 10.75L0.340481 2.74998C0.154648 2.57149 0.0448874 2.32815 0.0340834 2.07071C0.0232794 1.81327 0.112267 1.56159 0.28249 1.36816C0.452714 1.17472 0.691036 1.05446 0.947763 1.03244C1.20449 1.01042 1.45981 1.08836 1.66048 1.24999L10.0005 8.65998L18.3405 1.24999C18.4378 1.15648 18.5531 1.08364 18.6794 1.03588C18.8056 0.988116 18.9403 0.966411 19.0751 0.972071C19.21 0.977731 19.3423 1.01064 19.4641 1.06881C19.586 1.12699 19.6947 1.20922 19.7839 1.31056C19.8731 1.4119 19.9408 1.53025 19.983 1.65847C20.0253 1.78669 20.0411 1.92213 20.0295 2.05663C20.018 2.19113 19.9794 2.3219 19.9159 2.44106C19.8525 2.56022 19.7656 2.66531 19.6605 2.74998Z" fill="#5F4BDB"/>
</svg>
