<svg width="40" height="40" viewBox="0 0 40 40" fill="transparent" xmlns="http://www.w3.org/2000/svg">
<path d="M19.999 0.000244141C16.0434 0.000244141 12.1766 1.17322 8.88763 3.37085C5.59864 5.56848 3.03519 8.69205 1.52144 12.3466C0.00768912 16.0011 -0.388378 20.0224 0.383327 23.9021C1.15503 27.7817 3.05985 31.3453 5.8569 34.1424C8.65395 36.9394 12.2176 38.8443 16.0972 39.616C19.9768 40.3877 23.9982 39.9916 27.6527 38.4778C31.3072 36.9641 34.4308 34.4006 36.6284 31.1117C38.826 27.8227 39.999 23.9559 39.999 20.0002C39.999 17.3738 39.4817 14.7731 38.4766 12.3466C37.4715 9.92006 35.9983 7.71528 34.1412 5.85811C32.284 4.00094 30.0792 2.52775 27.6527 1.52265C25.2262 0.51756 22.6255 0.000244141 19.999 0.000244141ZM25.379 26.5802C25.5665 26.7662 25.7153 26.9874 25.8168 27.2311C25.9184 27.4748 25.9706 27.7362 25.9706 28.0002C25.9706 28.2643 25.9184 28.5257 25.8168 28.7694C25.7153 29.0131 25.5665 29.2343 25.379 29.4202C25.0115 29.7849 24.5168 29.9928 23.999 30.0002C23.7358 30.0018 23.4749 29.9513 23.2312 29.8518C22.9875 29.7523 22.7659 29.6056 22.579 29.4202L14.579 21.4202C14.3916 21.2343 14.2428 21.0131 14.1412 20.7694C14.0397 20.5257 13.9874 20.2643 13.9874 20.0002C13.9874 19.7362 14.0397 19.4748 14.1412 19.2311C14.2428 18.9874 14.3916 18.7662 14.579 18.5802L22.579 10.5802C22.7655 10.3938 22.9869 10.2458 23.2305 10.1449C23.4742 10.044 23.7353 9.99206 23.999 9.99206C24.2628 9.99206 24.5239 10.044 24.7675 10.1449C25.0112 10.2458 25.2326 10.3938 25.419 10.5802C25.6055 10.7667 25.7534 10.9881 25.8544 11.2317C25.9553 11.4754 26.0072 11.7365 26.0072 12.0002C26.0072 12.264 25.9553 12.5251 25.8544 12.7687C25.7534 13.0124 25.6055 13.2338 25.419 13.4202L18.839 20.0002L25.379 26.5802Z" fill="white"/>
</svg>
