<svg width="21" height="21" viewBox="0 0 21 21" fill="none" xmlns="http://www.w3.org/2000/svg">
<path fill-rule="evenodd" clip-rule="evenodd" d="M2.64758 1.35238C3.93851 0.0614507 6.07352 0.213181 7.1689 1.6737L8.98721 4.09806C9.88291 5.29242 9.76421 6.96371 8.70851 8.01938L7.36793 9.35995C7.49785 9.69815 7.92553 10.4402 9.22791 11.7426C10.5303 13.045 11.2724 13.4727 11.6106 13.6026L12.9511 12.2621C14.0068 11.2064 15.6781 11.0876 16.8724 11.9834L19.2968 13.8017C20.7573 14.8971 20.9091 17.0321 19.6181 18.323C19.1984 18.7427 19.1274 18.8137 18.427 19.5141C17.7132 20.2279 16.1976 20.8951 14.663 20.9618C12.2617 21.0662 9.00001 20 4.98529 15.9853C0.970617 11.9706 -0.0956535 8.70879 0.00875651 6.30746C0.0668365 4.97166 0.491527 3.50453 1.46206 2.54907C2.15686 1.8431 2.24722 1.75274 2.64758 1.35238ZM2.00687 6.39434C1.9345 8.05888 2.63601 10.8076 6.39951 14.5711C10.163 18.3346 12.9116 19.0361 14.5762 18.9637C16.13 18.8961 16.9636 18.1453 17.0128 18.0999L18.2039 16.9088C18.6342 16.4785 18.5837 15.7668 18.0968 15.4017L15.6724 13.5834C15.2743 13.2848 14.7172 13.3244 14.3653 13.6763C13.8352 14.2065 13.4732 14.5737 12.7648 15.2795C11.2932 16.7456 8.77411 14.1172 7.81372 13.1569C6.93114 12.2743 4.24148 9.67515 5.68962 8.20984C5.69249 8.20696 6.08254 7.81691 7.29428 6.60517C7.64617 6.25328 7.68577 5.69618 7.38718 5.29806L5.5689 2.8737C5.20377 2.38686 4.4921 2.33628 4.0618 2.76659C3.66574 3.16264 3.21752 3.61086 2.87189 3.95889C2.16052 4.67518 2.04494 5.51874 2.00687 6.39434Z" fill="white"/>
</svg>
