<svg width="25" height="24" viewBox="0 0 25 24" fill="none" xmlns="http://www.w3.org/2000/svg">
<path d="M13.9918 11.9999C13.9918 11.448 13.5441 11.0006 12.9918 11.0006C12.4395 11.0006 11.9918 11.448 11.9918 11.9999C11.9918 12.5518 12.4395 12.9992 12.9918 12.9992C13.5441 12.9992 13.9918 12.5518 13.9918 11.9999Z" stroke="#363848" stroke-width="2" stroke-linecap="round" stroke-linejoin="round"/>
<path d="M6.99179 11.9999C6.99179 11.448 6.54408 11.0006 5.99179 11.0006C5.43951 11.0006 4.99179 11.448 4.99179 11.9999C4.99179 12.5518 5.43951 12.9992 5.99179 12.9992C6.54408 12.9992 6.99179 12.5518 6.99179 11.9999Z" stroke="#363848" stroke-width="2" stroke-linecap="round" stroke-linejoin="round"/>
<path d="M20.9918 11.9999C20.9918 11.448 20.5441 11.0006 19.9918 11.0006C19.4395 11.0006 18.9918 11.448 18.9918 11.9999C18.9918 12.5518 19.4395 12.9992 19.9918 12.9992C20.5441 12.9992 20.9918 12.5518 20.9918 11.9999Z" stroke="#363848" stroke-width="2" stroke-linecap="round" stroke-linejoin="round"/>
</svg>
