<svg width="16" height="16" viewBox="0 0 16 16" fill="none" xmlns="http://www.w3.org/2000/svg">
<path d="M15.957 6.12698C15.8337 5.74757 15.4655 5.48678 14.9467 5.41144L10.8326 4.81355L8.99273 1.08556C8.76069 0.615454 8.39888 0.345825 7.99999 0.345825C7.60111 0.345825 7.23929 0.615454 7.00729 1.08556L5.16748 4.81352L1.05332 5.4114C0.534503 5.48675 0.166278 5.74757 0.042995 6.12692C-0.0802569 6.5063 0.0643703 6.93371 0.43972 7.29962L3.41674 10.2014L2.71394 14.299C2.62154 14.838 2.77848 15.1603 2.92645 15.3358C3.09951 15.541 3.35198 15.6541 3.63736 15.6541C3.85312 15.6541 4.0829 15.5908 4.32019 15.466L7.99999 13.5314L11.6798 15.466C11.9171 15.5908 12.1469 15.6541 12.3627 15.6541H12.3627C12.6482 15.6541 12.9006 15.541 13.0737 15.3357C13.2216 15.1603 13.3786 14.838 13.2862 14.2989L12.5833 10.2014L15.5603 7.29968C15.9357 6.93377 16.0803 6.50633 15.957 6.12698Z" fill="#D8D8D8"/>
</svg>
