<svg width="20" height="21" viewBox="0 0 20 21" fill="none" xmlns="http://www.w3.org/2000/svg">
<path d="M19.39 9.60005C19.6647 9.31925 19.856 8.96766 19.9425 8.58448C20.029 8.20131 20.0074 7.80164 19.88 7.43005C19.7605 7.05736 19.5387 6.72573 19.2399 6.47291C18.9411 6.22009 18.5773 6.05625 18.19 6.00005L13.9 5.34005C13.88 5.33425 13.8615 5.32406 13.846 5.31022C13.8304 5.29638 13.8181 5.27924 13.81 5.26005L11.93 1.26005C11.7651 0.885488 11.4949 0.566951 11.1522 0.343236C10.8096 0.119522 10.4092 0.00028459 10 4.84775e-05C9.5955 -0.00162412 9.19912 0.113563 8.85852 0.331763C8.51791 0.549963 8.24757 0.86189 8.08 1.23005L6.2 5.23005C6.18974 5.24955 6.17556 5.26672 6.15835 5.28049C6.14114 5.29426 6.12128 5.30432 6.1 5.31005L1.82 6.00005C1.43209 6.05784 1.06782 6.2221 0.767698 6.47455C0.467574 6.72701 0.243362 7.05777 0.119997 7.43005C-0.00270478 7.80293 -0.0209761 8.20229 0.0671646 8.58483C0.155305 8.96736 0.346494 9.31846 0.619997 9.60005L3.78 12.85C3.7891 12.8705 3.7938 12.8927 3.7938 12.915C3.7938 12.9374 3.7891 12.9596 3.78 12.98L3.04 17.52C2.9712 17.9154 3.01605 18.3222 3.16932 18.6931C3.3226 19.064 3.578 19.3838 3.90583 19.6153C4.23367 19.8467 4.62048 19.9804 5.02128 20.0007C5.42209 20.021 5.82043 19.9272 6.17 19.73L9.9 17.66C9.91853 17.6504 9.93911 17.6454 9.96 17.6454C9.98089 17.6454 10.0015 17.6504 10.02 17.66L13.75 19.73C14.1 19.9229 14.4973 20.0135 14.8963 19.9913C15.2954 19.9691 15.6801 19.8351 16.0066 19.6046C16.3331 19.374 16.5881 19.0563 16.7426 18.6877C16.897 18.3191 16.9446 17.9144 16.88 17.52L16.19 13C16.1795 12.9818 16.1739 12.9611 16.1739 12.94C16.1739 12.919 16.1795 12.8983 16.19 12.88L19.39 9.60005Z" fill="#D6D6D6"/>
</svg>
