<svg width="22" height="22" viewBox="0 0 22 22" fill="none" xmlns="http://www.w3.org/2000/svg">
<path d="M20.71 19.2901L17.88 16.4701C19.4142 14.5748 20.1626 12.163 19.9709 9.73209C19.7792 7.30119 18.6621 5.03653 16.8498 3.40507C15.0375 1.77362 12.6683 0.899774 10.2307 0.963727C7.79308 1.02768 5.47294 2.02456 3.7487 3.7488C2.02447 5.47304 1.02759 7.79317 0.963636 10.2308C0.899682 12.6684 1.77353 15.0376 3.40498 16.8499C5.03643 18.6621 7.3011 19.7793 9.732 19.971C12.1629 20.1627 14.5747 19.4143 16.47 17.8801L19.29 20.7101C19.383 20.8038 19.4936 20.8782 19.6154 20.929C19.7373 20.9798 19.868 21.0059 20 21.0059C20.132 21.0059 20.2627 20.9798 20.3846 20.929C20.5064 20.8782 20.617 20.8038 20.71 20.7101C20.8037 20.6171 20.8781 20.5065 20.9289 20.3847C20.9797 20.2628 21.0058 20.1321 21.0058 20.0001C21.0058 19.8681 20.9797 19.7374 20.9289 19.6155C20.8781 19.4937 20.8037 19.3831 20.71 19.2901ZM3 10.5001C3 9.01673 3.43987 7.56668 4.26398 6.33331C5.08809 5.09995 6.25943 4.13865 7.62987 3.57099C9.00032 3.00334 10.5083 2.85481 11.9632 3.1442C13.418 3.43359 14.7544 4.1479 15.8033 5.19679C16.8522 6.24568 17.5665 7.58206 17.8559 9.03691C18.1453 10.4918 17.9968 11.9998 17.4291 13.3702C16.8614 14.7407 15.9001 15.912 14.6668 16.7361C13.4334 17.5602 11.9834 18.0001 10.5 18.0001C8.51088 18.0001 6.60322 17.2099 5.1967 15.8034C3.79018 14.3969 3 12.4892 3 10.5001Z" fill="#646464"/>
</svg>
