<svg width="21" height="11" viewBox="0 0 21 11" fill="none" xmlns="http://www.w3.org/2000/svg">
<path d="M19.6604 2.75072L10.6605 10.7507C10.478 10.911 10.2434 10.9994 10.0005 10.9994C9.75754 10.9994 9.52294 10.911 9.34045 10.7507L0.340451 2.75072C0.154618 2.57222 0.0448569 2.32889 0.0340529 2.07144C0.0232489 1.814 0.112236 1.56232 0.28246 1.36889C0.452684 1.17545 0.691005 1.05519 0.947733 1.03317C1.20446 1.01116 1.45978 1.08909 1.66045 1.25072L10.0005 8.66071L18.3405 1.25072C18.4378 1.15721 18.5531 1.08438 18.6793 1.03661C18.8056 0.988849 18.9402 0.967143 19.0751 0.972803C19.21 0.978463 19.3423 1.01137 19.4641 1.06955C19.5859 1.12772 19.6947 1.20996 19.7839 1.3113C19.8731 1.41264 19.9408 1.53098 19.983 1.6592C20.0252 1.78742 20.041 1.92286 20.0295 2.05736C20.018 2.19186 19.9793 2.32263 19.9159 2.44179C19.8525 2.56095 19.7656 2.66604 19.6604 2.75072Z" fill="#5F4BDB"/>
</svg>
